<svg version="1.1" class="spinning" xmlns="http://www.w3.org/2000/svg" xmlns:xlink="http://www.w3.org/1999/xlink" x="0px" y="0px"
     viewBox="0 0 301.304 301.679" enable-background="new 0 0 301.304 301.679" xml:space="preserve">
    <g>
    <path fill="#D13F29" d="M266.238,54.115l-0.003-0.005l-0.181-0.205C255,41.333,235.983,35.128,212.632,35.128
      c-0.965,0-1.93,0.01-2.908,0.033l-0.004-0.003l0.001,0.003c3.989,9.481,6.742,20.612,8.223,32.943
      c3.378,28.797-0.277,64.074-11.963,100.299c-1.937,6.052-4.027,11.914-6.305,17.647c-0.358,0.877-0.675,1.741-1.057,2.593
      c-4.248,10.468-8.977,20.345-14.086,29.511h-0.001c22.439,7.699,43.376,11.687,60.696,11.687c20.574,0,36.024-5.635,42.8-17.346
      c0.254-0.454,0.554-1.043,0.823-1.583l-0.007,0.015l0.008-0.015c15.044-34.683,16.532-74.048,4.051-109.819
      c-5.818-16.748-14.697-32.653-26.661-46.973l0.127,0.146l-0.086-0.101L266.238,54.115"/>
    <path fill="#EED36C" d="M29.376,60.906L29.376,60.906L29.376,60.906 M150.508,0c-8.759,0-17.359,0.766-25.716,2.201
      c-4.906,0.836-9.771,1.89-14.477,3.222c-32.699,9.001-60.954,28.733-80.707,55.164l-0.232,0.318l-0.002,0.004
      c-0.308,0.501-0.853,1.392-1.16,1.894c-2.403,4.157-3.528,8.898-3.525,14.078c0.004,11.935,6.013,26.198,16.293,40.987l0.01,0.021
      l0.001,0.001l0,0l0,0C52.052,105.703,65.49,93.82,80.971,82.893c7.026-4.959,14.523-9.784,22.361-14.305
      c8.018-4.624,16.101-8.785,24.097-12.438c8.33-3.826,16.596-7.136,24.72-9.909c20.484-6.983,40.152-10.697,57.572-11.077
      l-0.003-0.005h0.001c-6.828-16.243-17.249-27.672-30.915-32.063c-2.257-0.745-4.567-1.253-6.908-1.594l0.001,0.003l-0.004-0.003
      l-0.021-0.006l-0.037-0.008C164.868,0.506,157.747,0,150.508,0"/>
    <path fill="#52777B" d="M40.994,117.892L40.994,117.892v0.003l-0.012,0.003c-21.744,23.979-34.554,49.083-34.546,70.147
      c0,0.683,0.046,1.352,0.073,2.027c0.022,0.524,0.019,1.057,0.058,1.576c0.261,3.562,0.91,6.992,1.972,10.266
      c0.313,0.871,0.639,1.735,0.969,2.595c13.357,35.156,39.537,64.022,72.808,80.915c0.771,0.317,2.438,1.012,3.828,1.538
      c0.463,0.174,0.896,0.331,1.255,0.449l0,0c3.978,1.275,8.074,1.901,12.258,1.901c18.496,0,38.695-12.082,57.17-32.187h0.02
      c9.885-10.757,19.291-23.907,27.685-38.97c-6.928-2.394-13.996-5.113-21.141-8.194L161.135,209c0,0-22.645-10.695-34.09-17.277
      c-19.137-11.069-36.275-23.284-50.797-35.826C61.616,143.246,49.644,130.312,40.994,117.892"/>
    <path fill="#C03726" d="M171.897,1.502c2.341,0.34,4.651,0.849,6.908,1.594c13.666,4.391,24.088,15.819,30.915,32.063l0.004,0.002
      c0.979-0.023,1.944-0.033,2.908-0.033c23.352,0,42.368,6.205,53.422,18.777l0.18,0.205l-0.001-0.002l-0.023-0.027
      c-0.241-0.288-0.498-0.568-0.741-0.856c-0.974-1.15-1.952-2.297-2.96-3.417c-12.849-14.263-28.39-26.045-45.825-34.569
      c-2.578-1.26-5.196-2.451-7.855-3.566C196.937,6.707,184.522,3.303,171.897,1.502"/>
    <path fill="#4D6435" d="M29.376,60.906l-0.003,0.005c-0.197,0.322-0.488,0.795-0.755,1.231c0.266-0.437,0.558-0.91,0.755-1.231
      c-0.197,0.322-0.488,0.795-0.755,1.231c0.266-0.437,0.558-0.91,0.755-1.231C12.567,83.51,1.97,110.981,0,140.799
      c-0.218,3.321-0.36,6.662-0.361,10.038c0.002,6.566,0.433,13.034,1.251,19.382c1.414,10.974,4.002,21.584,7.646,31.692
      c-1.214-3.753-1.86-7.717-2.027-11.838c-0.011-0.259-0.024-0.517-0.037-0.775c-0.019-0.416-0.037-0.832-0.037-1.253
      c-0.008-21.064,12.802-46.169,34.546-70.147l0.011-0.003v-0.003h0.001l-0.001-0.001l-0.01-0.021
      c-10.28-14.79-16.29-29.053-16.293-40.988c-0.003-5.18,1.122-9.921,3.525-14.078C28.522,62.3,29.068,61.407,29.376,60.906"/>
    <path fill="#431E17" d="M288.837,210.938c-0.266,0.532-0.559,1.111-0.811,1.557c-6.776,11.712-22.225,17.346-42.799,17.346
      c-17.319,0-38.256-3.988-60.695-11.687c-8.395,15.063-17.801,28.214-27.686,38.97h-0.019
      c-18.475,20.105-38.674,32.188-57.17,32.188c-4.184,0-8.281-0.626-12.257-1.901c-0.359-0.118-0.792-0.274-1.256-0.45
      c-1.391-0.526-3.058-1.219-3.828-1.535c9.566,4.84,19.722,8.709,30.327,11.454h0.035l0.2,0.052l0.104,0.033l0.139,0.028
      l0.167,0.047l0.048,0.011c12.16,3.075,24.644,4.627,37.143,4.627c24.631,0,49.316-6.002,71.696-18.112
      c1.688-0.913,3.399-1.882,5.034-2.823c8.591-5.092,16.764-11.127,24.438-18.076c7.21-6.521,13.644-13.579,19.295-21.058
      c0.509-0.673,1-1.356,1.497-2.036c0.289-0.396,0.587-0.788,0.872-1.187C279.512,229.708,284.69,220.501,288.837,210.938
       M288.838,210.937L288.838,210.937L288.838,210.937 M288.85,210.913l-0.012,0.024l0.005-0.01L288.85,210.913"/>
    </g>
  </svg>
